<?xml version="1.0" encoding="UTF-8"?>
<svg version="1.1" xmlns="http://www.w3.org/2000/svg" width="500" height="500">
<path d="M0 0 C0.7425 0.226875 1.485 0.45375 2.25 0.6875 C5.08218714 9.18406141 3.03364216 18.21285432 -0.75 26.0625 C-1.9462999 28.40836934 -2.86089042 29.79839042 -4.75 31.6875 C-3.615625 32.120625 -2.48125 32.55375 -1.3125 33 C-0.136875 33.556875 1.03875 34.11375 2.25 34.6875 C3.47087756 38.35013268 2.96903663 39.0037098 1.3125 42.375 C-2.08586341 48.84133038 -6.57629387 54.12949881 -13.1875 57.375 C-16.52127006 60.3835242 -16.27857975 62.03843739 -16.625 66.4375 C-16.69380882 68.52011356 -16.74397763 70.60375874 -16.75 72.6875 C-15.71875 72.460625 -14.6875 72.23375 -13.625 72 C-9.12080865 71.63675876 -7.38665879 72.04265724 -3.75 74.6875 C-0.62112999 80.30232153 -0.47935058 84.28964663 -1.375 90.5625 C-1.4776416 91.3568042 -1.5802832 92.1511084 -1.68603516 92.96948242 C-2.75507115 100.68317101 -3.95548646 108.05394517 -9.75 113.6875 C-12.03087523 115.18186653 -14.32318884 116.42742498 -16.75 117.6875 C-14.17215154 120.33502004 -11.83351902 122.63182065 -8.75 124.6875 C-8.36328125 123.61242187 -8.36328125 123.61242187 -7.96875 122.515625 C-6.6795897 119.52411199 -5.12791273 117.09522395 -3.25 114.4375 C-2.6415625 113.56609375 -2.033125 112.6946875 -1.40625 111.796875 C0.25 109.6875 0.25 109.6875 2.25 108.6875 C5.34604595 108.34589214 8.45005768 108.31710842 11.5625 108.25 C12.41779297 108.20423828 13.27308594 108.15847656 14.15429688 108.11132812 C20.33313768 108.00124808 20.33313768 108.00124808 22.93505859 109.94873047 C25.02015401 112.3727195 26.2414501 114.66185031 27.25 117.6875 C27.70375 116.57375 28.1575 115.46 28.625 114.3125 C30.25 110.6875 30.25 110.6875 32.25 108.6875 C35.30863398 108.16207095 38.40140073 108.2245535 41.5 108.1875 C42.34691406 108.14625 43.19382812 108.105 44.06640625 108.0625 C48.49769774 108.00736729 51.460339 108.27763652 54.859375 111.28125 C57.09602521 113.52866073 57.2488732 114.67230612 57.48852539 117.90380859 C57.23669318 121.89858407 56.63631165 125.72284938 55.82421875 129.6328125 C55.67596146 130.36571503 55.52770416 131.09861755 55.37495422 131.85372925 C55.06147154 133.39229395 54.74445829 134.93014315 54.42407227 136.46728516 C53.93790817 138.81053267 53.46935192 141.15685277 53.00195312 143.50390625 C52.69376709 145.00542603 52.38455702 146.50673607 52.07421875 148.0078125 C51.86776985 149.05172653 51.86776985 149.05172653 51.65715027 150.11672974 C50.80191568 154.13704326 50.05057251 157.61689181 47.25 160.6875 C44.43316671 161.18181893 42.22137975 161.34356347 39.40625 161.28125 C38.64074829 161.28129028 37.87524658 161.28133057 37.08654785 161.28137207 C35.46923608 161.27601428 33.8519252 161.25841995 32.23486328 161.22949219 C29.75863133 161.18764586 27.28511948 161.18842096 24.80859375 161.1953125 C23.23696026 161.18481946 21.66534079 161.17188072 20.09375 161.15625 C19.35306274 161.15604858 18.61237549 161.15584717 17.84924316 161.15563965 C12.74690843 161.03811547 12.74690843 161.03811547 10.25976562 159.28320312 C9.25 157.6875 9.25 157.6875 9.25 155.6875 C6.89184541 155.89068682 6.89184541 155.89068682 4.25 156.6875 C3.51523437 157.6775 3.51523437 157.6775 2.765625 158.6875 C-1.29011466 161.91193898 -5.71274249 161.36754364 -10.75 161.4375 C-12.29699585 161.48088501 -12.29699585 161.48088501 -13.87524414 161.52514648 C-16.83361771 161.60186319 -19.79088039 161.65139403 -22.75 161.6875 C-23.49233887 161.6973291 -24.23467773 161.7071582 -24.99951172 161.71728516 C-28.25075134 161.75258011 -31.4991631 161.75041942 -34.75 161.6875 C-34.75 164.6575 -34.75 167.6275 -34.75 170.6875 C-26.64824119 170.80862264 -18.79466868 170.50228345 -10.74609375 169.515625 C-7.75 169.6875 -7.75 169.6875 -5.4765625 171.6796875 C-4.90679687 172.34226562 -4.33703125 173.00484375 -3.75 173.6875 C-0.67564622 173.50117553 0.62371096 172.43835936 3.25 170.6875 C5.90890285 170.42255069 8.47226952 170.2667161 11.13671875 170.203125 C11.91255814 170.1790155 12.68839752 170.15490601 13.48774719 170.13006592 C15.13093978 170.08177887 16.77428237 170.03838505 18.41772461 169.99951172 C20.91135374 169.93814346 23.40357638 169.85492341 25.89648438 169.76953125 C27.49735954 169.72523093 29.09827105 169.68222174 30.69921875 169.640625 C31.80435066 169.60174164 31.80435066 169.60174164 32.93180847 169.56207275 C38.99156333 169.44508061 45.07155131 169.72689618 49.75 173.9375 C51.57194046 177.27772417 51.95249099 178.94088138 51.25 182.6875 C48.51713643 186.2490567 47.05777945 187.5553863 42.57365417 188.28877258 C41.13140645 188.30317227 39.68871974 188.29018085 38.24682617 188.25512695 C37.06067215 188.25622215 37.06067215 188.25622215 35.85055542 188.25733948 C33.24731885 188.25386721 30.64589111 188.2150257 28.04296875 188.17578125 C26.23408485 188.16645178 24.42518829 188.1593363 22.61628723 188.15434265 C17.86321928 188.13528331 13.11091947 188.08619187 8.3581543 188.03082275 C3.50515127 187.9796072 -1.34797629 187.9568237 -6.20117188 187.93164062 C-15.71778477 187.87807195 -25.23382842 187.79277214 -34.75 187.6875 C-34.36573775 192.18461236 -34.36573775 192.18461236 -31.61816406 195.50756836 C-30.20615723 196.25985718 -30.20615723 196.25985718 -28.765625 197.02734375 C-27.69868408 197.60830811 -26.63174316 198.18927246 -25.5324707 198.7878418 C-24.36675537 199.394104 -23.20104004 200.00036621 -22 200.625 C-20.79233882 201.2715634 -19.58556434 201.91978547 -18.37963867 202.56958008 C-15.1786935 204.2857803 -11.9633921 205.972916 -8.74188232 207.65014648 C-6.74556459 208.68980992 -4.75167243 209.73399743 -2.75830078 210.77929688 C7.07734916 215.93209707 16.92551414 221.06597596 26.8828125 225.98046875 C34.76417566 229.976009 38.06481992 234.56529079 41.25 242.6875 C45.21006484 254.87494094 46.72814406 267.91042831 46.25 280.6875 C44.6 281.0175 42.95 281.3475 41.25 281.6875 C39.44189226 275.99933272 38.56998484 270.41093506 37.8125 264.5 C36.45724764 248.20023018 36.45724764 248.20023018 28.14746094 235.07568359 C27.35114258 234.62531738 26.55482422 234.17495117 25.734375 233.7109375 C24.84556641 233.2065918 23.95675781 232.70224609 23.04101562 232.18261719 C18.57528181 229.7903714 14.05569316 227.52782379 9.5 225.3125 C1.75035033 221.51285736 -5.73852579 217.50636174 -13.0703125 212.953125 C-15.56795413 211.51527975 -15.56795413 211.51527975 -17.8125 211.79296875 C-20.23882613 212.91318787 -22.39344649 214.27967736 -24.625 215.75 C-27.60868865 217.5638724 -29.61897647 218.66030644 -33.0625 219.375 C-36.88582661 218.3969397 -38.30833919 216.76399262 -40.75 213.6875 C-41.01279336 210.89495961 -41.06657204 208.51386683 -40.9375 205.75 C-40.93904124 200.10476375 -40.93904124 200.10476375 -43.84765625 195.4140625 C-46.43418352 193.913191 -48.97176545 192.78482045 -51.75 191.6875 C-52.51828125 191.16800781 -53.2865625 190.64851562 -54.078125 190.11328125 C-57.65958343 188.20212288 -60.718791 188.11963533 -64.75 187.6875 C-64.76030746 188.85039047 -64.77061493 190.01328094 -64.78123474 191.21141052 C-64.87879033 202.14524909 -64.981507 213.07902846 -65.08933926 224.01277065 C-65.14461557 229.6345513 -65.19804296 235.25633709 -65.24731445 240.87817383 C-65.29488872 246.29872899 -65.34722874 251.7192187 -65.40294075 257.13969612 C-65.42339585 259.21263064 -65.44210358 261.28558314 -65.45907402 263.35854912 C-65.48304846 266.25138758 -65.51311213 269.14410109 -65.54467773 272.03686523 C-65.5504332 272.90288864 -65.55618866 273.76891205 -65.56211853 274.66117859 C-65.63594784 280.57344784 -65.63594784 280.57344784 -66.75 281.6875 C-68.25551174 281.78325309 -69.7655103 281.80938187 -71.27406311 281.80775452 C-72.74018791 281.80981651 -72.74018791 281.80981651 -74.2359314 281.81192017 C-75.31702179 281.80832489 -76.39811218 281.80472961 -77.51196289 281.80102539 C-79.20930321 281.80124443 -79.20930321 281.80124443 -80.94093323 281.8014679 C-84.70152671 281.80076819 -88.46207137 281.79297311 -92.22265625 281.78515625 C-94.82197543 281.78329227 -97.42129497 281.78186828 -100.02061462 281.78086853 C-106.17588577 281.77743341 -112.3311366 281.76954256 -118.48640007 281.75951904 C-125.49233346 281.74835694 -132.49826767 281.74284721 -139.50420773 281.73782361 C-153.91948133 281.72735992 -168.33474004 281.70976108 -182.75 281.6875 C-187.37938202 272.42873595 -181.31679566 253.22409974 -178.75 243.6875 C-174.48457535 231.02832897 -165.29115272 226.1792459 -153.92114258 220.53100586 C-148.03655334 217.6875 -148.03655334 217.6875 -145.75 217.6875 C-145.65501221 217.14448242 -145.56002441 216.60146484 -145.4621582 216.04199219 C-142.70046337 200.55027731 -139.54939762 186.79808276 -128.75 174.6875 C-128.09 174.6875 -127.43 174.6875 -126.75 174.6875 C-126.75 174.0275 -126.75 173.3675 -126.75 172.6875 C-125.76 172.0275 -124.77 171.3675 -123.75 170.6875 C-132.09325541 171.25995694 -140.42514847 171.88899383 -148.75 172.6875 C-149.07291016 173.83798828 -149.07291016 173.83798828 -149.40234375 175.01171875 C-151.26256839 180.08554886 -153.78140332 184.73242127 -156.3125 189.5 C-156.84391602 190.5094165 -157.37533203 191.51883301 -157.92285156 192.55883789 C-159.52742659 195.60411338 -161.13815182 198.64606917 -162.75 201.6875 C-163.68123709 203.45039011 -164.61224356 205.21340208 -165.54296875 206.9765625 C-167.60669474 210.88302896 -169.67634089 214.78629788 -171.75 218.6875 C-172.41 218.6875 -173.07 218.6875 -173.75 218.6875 C-174.30985596 217.50720215 -174.86971191 216.3269043 -175.4465332 215.11083984 C-177.53135438 210.71601042 -179.616996 206.32157076 -181.70288086 201.92724609 C-182.60414519 200.02826321 -183.50518943 198.12917586 -184.40600586 196.22998047 C-185.7036799 193.49418837 -187.00215488 190.75877766 -188.30078125 188.0234375 C-188.7008992 187.17945404 -189.10101715 186.33547058 -189.51325989 185.46591187 C-190.25960633 183.89460938 -191.01625729 182.32814345 -191.78504944 180.7677002 C-192.75 178.6875 -192.75 178.6875 -193.87597656 175.24560547 C-196.49159448 171.67519841 -198.89899534 171.54198817 -203.15318298 170.83929443 C-204.65323631 170.63267181 -204.65323631 170.63267181 -206.18359375 170.421875 C-207.21307632 170.25753967 -208.2425589 170.09320435 -209.30323792 169.92388916 C-212.59463752 169.40310588 -215.89014833 168.91901955 -219.1875 168.4375 C-222.47982777 167.93479584 -225.77083163 167.42458582 -229.06105042 166.90826416 C-231.10853587 166.58933352 -233.15747267 166.27955627 -235.20787048 165.97991943 C-236.13886063 165.83927063 -237.06985077 165.69862183 -238.02905273 165.55371094 C-239.25458107 165.3743399 -239.25458107 165.3743399 -240.50486755 165.19134521 C-242.8369567 164.66798546 -244.66670812 163.84326227 -246.75 162.6875 C-241.2766374 157.12358544 -235.82228493 151.64302808 -229.8671875 146.58984375 C-226.57021719 143.62743685 -223.49618103 140.44128616 -220.4296875 137.2421875 C-219.23926994 136.02098328 -217.99821768 134.84956124 -216.75 133.6875 C-216.09 133.6875 -215.43 133.6875 -214.75 133.6875 C-214.75 133.0275 -214.75 132.3675 -214.75 131.6875 C-213.48349609 130.93146484 -213.48349609 130.93146484 -212.19140625 130.16015625 C-209.57841168 128.03134622 -209.57841168 128.03134622 -209.55419922 125.73779297 C-209.80334201 123.16513472 -210.21471263 120.66626025 -210.6875 118.125 C-210.84065674 117.17713623 -210.99381348 116.22927246 -211.15161133 115.25268555 C-211.48610883 113.18274217 -211.8312642 111.11450053 -212.18554688 109.04785156 C-212.99071843 104.25443406 -213.69601903 99.44771252 -214.40258789 94.63891602 C-214.7555848 92.23753811 -215.114033 89.83695438 -215.47827148 87.43725586 C-215.72685913 85.79188843 -215.72685913 85.79188843 -215.98046875 84.11328125 C-216.12895264 83.13786377 -216.27743652 82.16244629 -216.43041992 81.1574707 C-216.75 78.6875 -216.75 78.6875 -216.75 75.6875 C-212.8495045 77.16072008 -209.2327967 78.94993214 -205.55859375 80.91796875 C-204.67966209 81.38823235 -204.67966209 81.38823235 -203.78297424 81.86799622 C-202.54432599 82.53156548 -201.30637734 83.19644213 -200.0690918 83.86254883 C-198.21919721 84.85794429 -196.36664373 85.84823801 -194.51367188 86.83789062 C-193.29936657 87.48937351 -192.08517335 88.14106535 -190.87109375 88.79296875 C-189.97358902 89.2717598 -189.97358902 89.2717598 -189.05795288 89.76022339 C-184.03009048 92.46847987 -179.22225832 95.48269744 -174.45336914 98.6262207 C-171.77379716 99.96049759 -171.77379716 99.96049759 -168.90332031 99.11083984 C-165.16289262 97.42249257 -161.4774708 95.67010316 -157.82421875 93.80078125 C-157.07719193 93.42068405 -156.3301651 93.04058685 -155.5605011 92.64897156 C-153.98521028 91.84517167 -152.41110762 91.03903945 -150.83813477 90.23071289 C-148.46019219 89.01163341 -146.07515126 87.80733087 -143.68945312 86.60351562 C-136.40309086 82.888396 -129.51474687 79.28563406 -123.29223633 73.89135742 C-121.75 72.6875 -121.75 72.6875 -119.75 72.6875 C-119.77094727 72.11942627 -119.79189453 71.55135254 -119.81347656 70.96606445 C-120.18072697 59.46856995 -120.31650146 49.42331469 -115.75 38.6875 C-115.25886719 37.40746094 -115.25886719 37.40746094 -114.7578125 36.1015625 C-109.14887647 23.12322148 -98.38509742 14.31406682 -85.75 8.6875 C-79.50680044 6.51563223 -73.36979988 5.09907334 -66.75 5.6875 C-65.75 6.6875 -65.75 6.6875 -65.62695217 8.5284586 C-65.62787396 9.33871463 -65.62879576 10.14897066 -65.62974548 10.98377991 C-65.62768349 12.37417732 -65.62768349 12.37417732 -65.62557983 13.79266357 C-65.62917511 14.81764954 -65.63277039 15.8426355 -65.63647461 16.89868164 C-65.63632858 17.97172043 -65.63618256 19.04475922 -65.6360321 20.15031433 C-65.63673176 23.71611516 -65.64452662 27.28186449 -65.65234375 30.84765625 C-65.65420774 33.31245393 -65.65563173 35.77725199 -65.65663147 38.24205017 C-65.66045813 44.74403905 -65.67028968 51.24600575 -65.68133545 57.74798584 C-65.69208252 64.37690817 -65.69612841 71.00583693 -65.70117188 77.63476562 C-65.71191181 90.65235324 -65.72879903 103.66992544 -65.75 116.6875 C-64.94755859 116.6167627 -64.14511719 116.54602539 -63.31835938 116.47314453 C-62.25423828 116.38145996 -61.19011719 116.28977539 -60.09375 116.1953125 C-59.04380859 116.1039502 -57.99386719 116.01258789 -56.91210938 115.91845703 C-45.86445309 115.11154823 -45.86445309 115.11154823 -41.65625 116.2578125 C-39.54482052 116.90638259 -39.54482052 116.90638259 -36.75 115.6875 C-34.85529184 115.6189505 -32.9583166 115.60269628 -31.0625 115.625 C-30.06863281 115.63402344 -29.07476562 115.64304687 -28.05078125 115.65234375 C-27.29152344 115.66394531 -26.53226563 115.67554688 -25.75 115.6875 C-25.47829419 111.8231078 -25.21411924 107.95826288 -24.95483398 104.09301758 C-24.86001193 102.69866167 -24.76300957 101.3044523 -24.66381836 99.91040039 C-24.10624832 92.06906177 -23.68561654 84.28101694 -23.74609375 76.41796875 C-23.74407959 75.11754639 -23.74206543 73.81712402 -23.73999023 72.47729492 C-23.74653563 69.99914285 -23.79261251 67.52069918 -23.88305664 65.04418945 C-23.86370139 56.82993635 -23.86370139 56.82993635 -20.60205078 53.48413086 C-17.9453125 51.65234375 -17.9453125 51.65234375 -15.30517578 50.19506836 C-11.27540751 47.81748198 -8.6084978 44.33161143 -5.75 40.6875 C-7.3278125 40.254375 -7.3278125 40.254375 -8.9375 39.8125 C-11.97818711 38.91524807 -14.83712344 37.92326581 -17.75 36.6875 C-17.625 34.4375 -17.625 34.4375 -16.75 31.6875 C-14.79109119 30.29449818 -12.7860882 28.96504554 -10.75 27.6875 C-5.59818575 22.1063679 -4.49573678 17.02057833 -3.75 9.6875 C-5.05324219 10.21150391 -5.05324219 10.21150391 -6.3828125 10.74609375 C-7.53523437 11.20113281 -8.68765625 11.65617187 -9.875 12.125 C-11.01195312 12.57746094 -12.14890625 13.02992187 -13.3203125 13.49609375 C-23.85382929 17.15523113 -34.8404316 15.78617095 -45.6875 14.3125 C-46.70134766 14.18617187 -47.71519531 14.05984375 -48.75976562 13.9296875 C-49.73494141 13.80078125 -50.71011719 13.671875 -51.71484375 13.5390625 C-53.02376587 13.36624756 -53.02376587 13.36624756 -54.35913086 13.18994141 C-56.77248148 12.68277551 -58.60830573 11.89067114 -60.75 10.6875 C-60.75 9.3675 -60.75 8.0475 -60.75 6.6875 C-57.79286817 5.20893408 -55.34663488 5.77007624 -52.0625 6 C-51.06524902 6.06840088 -51.06524902 6.06840088 -50.04785156 6.13818359 C-45.32748681 6.49026727 -40.68232165 7.10654997 -36 7.8125 C-24.88000211 9.32991638 -16.61878874 8.2216992 -6.75 2.6875 C-6.04230469 2.13191406 -5.33460938 1.57632813 -4.60546875 1.00390625 C-2.75 -0.3125 -2.75 -0.3125 0 0 Z M-80.75 14.6875 C-80.75 24.5875 -80.75 34.4875 -80.75 44.6875 C-82.07 44.6875 -83.39 44.6875 -84.75 44.6875 C-86.06361698 42.06026604 -85.96253909 39.96139439 -86.06640625 37.0234375 C-86.12924805 35.34121094 -86.12924805 35.34121094 -86.19335938 33.625 C-86.23267578 32.449375 -86.27199219 31.27375 -86.3125 30.0625 C-86.37727539 28.28746094 -86.37727539 28.28746094 -86.44335938 26.4765625 C-86.54967426 23.54699672 -86.65170642 20.61734412 -86.75 17.6875 C-91.19667392 18.51664942 -94.00047304 19.43861434 -97.359375 22.52734375 C-100.45047924 27.32897477 -99.25329559 33.23976784 -98.75 38.6875 C-98.69102539 39.44869141 -98.63205078 40.20988281 -98.57128906 40.99414062 C-98.38250395 43.3945482 -98.16702128 45.79065961 -97.9375 48.1875 C-97.86797119 48.94063477 -97.79844238 49.69376953 -97.72680664 50.46972656 C-97.20798357 55.07485977 -96.31530947 58.71695108 -93.75 62.6875 C-87.81207442 66.02914079 -87.81207442 66.02914079 -71.75 64.6875 C-71.75 47.5275 -71.75 30.3675 -71.75 12.6875 C-76.02854301 12.43990622 -76.02854301 12.43990622 -80.75 14.6875 Z M-105.75 33.6875 C-106.53476278 35.11744324 -107.30178913 36.55711773 -108.0625 38 C-108.70638672 39.20076172 -108.70638672 39.20076172 -109.36328125 40.42578125 C-113.49432383 50.14245886 -114.17354717 59.2753013 -114.03125 69.7019043 C-114.00019468 71.98568376 -113.99026848 74.26876464 -113.984375 76.55273438 C-114.76239118 91.58048353 -114.76239118 91.58048353 -111.75 105.6875 C-109.8009375 105.873125 -109.8009375 105.873125 -107.8125 106.0625 C-105.62109375 106.2890625 -105.62109375 106.2890625 -103.75 106.6875 C-102.375 108.4375 -102.375 108.4375 -101.75 110.6875 C-101.0927166 112.3578894 -100.42709378 114.02504211 -99.75 115.6875 C-93.20436516 116.46410074 -86.7112302 116.7947792 -80.125 116.8125 C-79.05862305 116.81926758 -79.05862305 116.81926758 -77.97070312 116.82617188 C-74.5738452 117.11613805 -74.5738452 117.11613805 -71.75 115.6875 C-71.65204689 114.31140118 -71.62201912 112.93036118 -71.62060547 111.55078125 C-71.61587723 110.23436646 -71.61587723 110.23436646 -71.61105347 108.89135742 C-71.6130777 107.93720947 -71.61510193 106.98306152 -71.6171875 106 C-71.61623077 105.02716064 -71.61527405 104.05432129 -71.61428833 103.05200195 C-71.61360642 100.990722 -71.61546147 98.92943992 -71.61962891 96.86816406 C-71.624977 93.70112312 -71.61968428 90.534224 -71.61328125 87.3671875 C-71.61394203 85.36979135 -71.61522319 83.37239529 -71.6171875 81.375 C-71.61516327 80.42085205 -71.61313904 79.4667041 -71.61105347 78.48364258 C-71.61420563 77.60603271 -71.61735779 76.72842285 -71.62060547 75.82421875 C-71.62140106 75.04780029 -71.62219666 74.27138184 -71.62301636 73.47143555 C-71.55596458 71.66316338 -71.55596458 71.66316338 -72.75 70.6875 C-74.16763891 70.57905389 -75.59007918 70.53175809 -77.01171875 70.51171875 C-77.88376953 70.48787109 -78.75582031 70.46402344 -79.65429688 70.43945312 C-81.49000814 70.39694192 -83.32601208 70.36544611 -85.16210938 70.34570312 C-90.77060264 70.16876607 -94.48800841 69.70071175 -98.75 65.6875 C-102.43176557 59.56747909 -102.7099504 52.74322265 -103.4375 45.75 C-103.56705078 44.58919922 -103.69660156 43.42839844 -103.83007812 42.23242188 C-104.14645456 39.38503394 -104.45279162 36.53694156 -104.75 33.6875 C-105.08 33.6875 -105.41 33.6875 -105.75 33.6875 Z M-16.75 79.6875 C-17.41 89.9175 -18.07 100.1475 -18.75 110.6875 C-13.85754579 108.24127289 -11.67234187 106.30930582 -9.83203125 101.078125 C-7.9901994 94.40256544 -6.79421767 87.61381871 -7.75 80.6875 C-8.41 80.0275 -9.07 79.3675 -9.75 78.6875 C-13.64459074 78.47668149 -13.64459074 78.47668149 -16.75 79.6875 Z M-124.75 82.6875 C-126.47326908 87.85730723 -126.97569007 92.27093821 -126.75 97.6875 C-123.285 97.1925 -123.285 97.1925 -119.75 96.6875 C-119.75 91.0775 -119.75 85.4675 -119.75 79.6875 C-122.03959537 79.6875 -123.19076351 81.1755131 -124.75 82.6875 Z M-120.75 111.6875 C-121.71303663 116.10315432 -122.66954756 120.52019895 -123.625 124.9375 C-124.02912109 126.78988281 -124.02912109 126.78988281 -124.44140625 128.6796875 C-126.09104045 136.3243338 -127.52597357 143.96306135 -128.75 151.6875 C-124.79 151.6875 -120.83 151.6875 -116.75 151.6875 C-115.95782381 147.89593916 -115.16624549 144.10425508 -114.375 140.3125 C-114.15328125 139.25160156 -113.9315625 138.19070312 -113.703125 137.09765625 C-113.04897298 133.96157452 -112.39904658 130.82464186 -111.75 127.6875 C-111.55003418 126.73278809 -111.35006836 125.77807617 -111.14404297 124.79443359 C-110.96244629 123.91352051 -110.78084961 123.03260742 -110.59375 122.125 C-110.43326172 121.35285156 -110.27277344 120.58070313 -110.10742188 119.78515625 C-109.64413239 117.06617863 -109.60526455 114.4374736 -109.75 111.6875 C-113.38 111.6875 -117.01 111.6875 -120.75 111.6875 Z M-158.5625 118.25 C-162.93550067 123.12277218 -166.01422141 128.80201669 -166.25 135.4375 C-165.93158277 140.45257138 -164.11139702 143.92272608 -161.0625 147.875 C-156.36107371 151.55990169 -150.92150985 153.29360458 -144.90625 153.04296875 C-140.62508884 152.33719762 -136.46869178 150.92700955 -132.75 148.6875 C-132.09 147.3675 -131.43 146.0475 -130.75 144.6875 C-133.06 142.7075 -135.37 140.7275 -137.75 138.6875 C-138.801875 139.43 -138.801875 139.43 -139.875 140.1875 C-143.22321887 141.9343968 -145.0258163 142.24216566 -148.75 141.6875 C-151.125 140.0625 -151.125 140.0625 -152.75 137.6875 C-153.45462911 133.6358826 -152.91404621 131.97731498 -150.875 128.375 C-148.75 125.6875 -148.75 125.6875 -146.75 124.6875 C-141.88241177 124.24499198 -138.96610247 125.27829859 -134.75 127.6875 C-131.285 124.7175 -131.285 124.7175 -127.75 121.6875 C-129.92898905 117.32952189 -130.41883956 116.54371162 -134.75 114.6875 C-143.46709532 112.84566212 -150.79110593 113.93255885 -158.5625 118.25 Z M1.52734375 118.875 C0.40955424 120.79799124 -0.68111479 122.73690186 -1.75 124.6875 C-3.13132987 126.82110498 -4.52642725 128.94584583 -5.93359375 131.0625 C-7.35380561 133.26939142 -8.77175238 135.47774206 -10.1875 137.6875 C-10.92635818 138.82947504 -11.6652901 139.97140237 -12.40429688 141.11328125 C-13.09458984 142.18964844 -13.78488281 143.26601562 -14.49609375 144.375 C-15.12185303 145.34824219 -15.7476123 146.32148438 -16.39233398 147.32421875 C-17.91604483 149.52228311 -17.91604483 149.52228311 -17.75 151.6875 C-15.81372231 151.79557131 -13.87572244 151.8731225 -11.9375 151.9375 C-10.85855469 151.98390625 -9.77960938 152.0303125 -8.66796875 152.078125 C-5.65536619 151.97574548 -5.65536619 151.97574548 -3.86328125 149.796875 C-2.59441379 147.7902272 -2.59441379 147.7902272 -2.75 145.6875 C2.2 146.0175 7.15 146.3475 12.25 146.6875 C12.91 148.3375 13.57 149.9875 14.25 151.6875 C17.88 151.6875 21.51 151.6875 25.25 151.6875 C24.62428442 143.58844909 22.71569792 135.97673649 20.6875 128.125 C20.35426583 126.81719779 20.02157937 125.50925589 19.68945312 124.20117188 C18.8816604 121.02853669 18.06838245 117.8574169 17.25 114.6875 C10.69649273 113.71900139 5.57344231 112.99494716 1.52734375 118.875 Z M36.25 114.6875 C34.55871988 118.91570029 33.53647414 122.74746949 32.7421875 127.17578125 C32.61184113 127.87897995 32.48149475 128.58217865 32.34719849 129.3066864 C31.93494106 131.53692873 31.52986909 133.76840587 31.125 136 C30.8455268 137.51896763 30.56558381 139.0378489 30.28515625 140.55664062 C29.60132998 144.26594978 28.92394168 147.97638275 28.25 151.6875 C32.21 151.6875 36.17 151.6875 40.25 151.6875 C42.32294984 143.67981051 44.33648082 135.66664 46 127.5625 C46.24234375 126.38429688 46.4846875 125.20609375 46.734375 123.9921875 C47.22824008 120.82696128 47.34716993 117.88439068 47.25 114.6875 C43.62 114.6875 39.99 114.6875 36.25 114.6875 Z M-105.75 126.6875 C-109.57868072 131.75645757 -110.45296424 136.46124533 -109.75 142.6875 C-108.19484777 146.80865342 -106.69538641 149.60521273 -102.75 151.6875 C-98.47690272 152.79534004 -96.42179653 152.96843309 -92.3125 151.25 C-91.466875 150.734375 -90.62125 150.21875 -89.75 149.6875 C-89.75 150.3475 -89.75 151.0075 -89.75 151.6875 C-86.45 151.6875 -83.15 151.6875 -79.75 151.6875 C-78.33818303 148.37552958 -77.34538289 145.24697487 -76.6796875 141.7109375 C-76.50566406 140.793125 -76.33164063 139.8753125 -76.15234375 138.9296875 C-75.97832031 137.98351562 -75.80429688 137.03734375 -75.625 136.0625 C-75.44324219 135.10859375 -75.26148438 134.1546875 -75.07421875 133.171875 C-74.07935165 127.96420681 -74.07935165 127.96420681 -73.75 122.6875 C-74.49765625 122.6875 -75.2453125 122.6875 -76.015625 122.6875 C-88.77803738 122.6875 -88.77803738 122.6875 -93 121.875 C-98.43179737 121.26649552 -101.83875533 122.96166422 -105.75 126.6875 Z M-43.33203125 126.1171875 C-47.50976752 130.95710099 -48.11838467 135.01482893 -48.01953125 141.1796875 C-47.60674797 145.02036675 -46.43348311 146.93692981 -43.75 149.6875 C-38.98758989 152.4044498 -34.20507866 153.36938483 -28.75 152.6875 C-22.85971648 150.69021996 -19.29630903 147.73830376 -15.75 142.6875 C-14.15878546 137.91385638 -13.95120915 133.53733145 -15.9375 128.9375 C-18.89242518 125.26931702 -21.93818791 122.25359554 -26.75 121.6875 C-32.81237482 121.22116348 -38.68015967 121.91327393 -43.33203125 126.1171875 Z M-55.75 123.6875 C-56.08 123.3575 -56.41 123.0275 -56.75 122.6875 C-58.60287502 122.61523498 -60.45833878 122.6036878 -62.3125 122.625 C-63.32441406 122.63402344 -64.33632812 122.64304687 -65.37890625 122.65234375 C-66.16136719 122.66394531 -66.94382813 122.67554688 -67.75 122.6875 C-70.30057896 132.33265053 -72.40038581 141.79032931 -73.75 151.6875 C-69.79 151.6875 -65.83 151.6875 -61.75 151.6875 C-61.35167969 149.98980469 -61.35167969 149.98980469 -60.9453125 148.2578125 C-60.5889156 146.77595168 -60.23212424 145.2941857 -59.875 143.8125 C-59.70097656 143.06613281 -59.52695313 142.31976563 -59.34765625 141.55078125 C-57.9765625 135.9140625 -57.9765625 135.9140625 -55.75 133.6875 C-53.43234271 132.96822705 -51.09904126 132.2965107 -48.75 131.6875 C-48.42 128.3875 -48.09 125.0875 -47.75 121.6875 C-50.95395416 121.6875 -52.84399739 122.43085022 -55.75 123.6875 Z M-84.75 160.6875 C-85.08 162.0075 -85.41 163.3275 -85.75 164.6875 C-84.17356682 165.69834265 -82.5885483 166.69580511 -81 167.6875 C-80.11828125 168.244375 -79.2365625 168.80125 -78.328125 169.375 C-75.63805607 170.98995536 -75.63805607 170.98995536 -71.75 170.6875 C-71.75 167.3875 -71.75 164.0875 -71.75 160.6875 C-76.04 160.6875 -80.33 160.6875 -84.75 160.6875 Z M-107.75 171.6875 C-109.06626692 175.30723402 -109.75 177.78317131 -109.75 181.6875 C-109.09 181.6875 -108.43 181.6875 -107.75 181.6875 C-107.09 178.3875 -106.43 175.0875 -105.75 171.6875 C-106.41 171.6875 -107.07 171.6875 -107.75 171.6875 Z M-89.75 171.6875 C-89.42 172.3475 -89.09 173.0075 -88.75 173.6875 C-88.42 173.0275 -88.09 172.3675 -87.75 171.6875 C-88.41 171.6875 -89.07 171.6875 -89.75 171.6875 Z M-114.75 172.6875 C-116.07 173.6775 -117.39 174.6675 -118.75 175.6875 C-118.42 177.3375 -118.09 178.9875 -117.75 180.6875 C-114.70086772 181.69861093 -114.70086772 181.69861093 -111.75 180.6875 C-112.08 180.0275 -112.41 179.3675 -112.75 178.6875 C-113.74 179.0175 -114.73 179.3475 -115.75 179.6875 C-115.42 178.3675 -115.09 177.0475 -114.75 175.6875 C-113.43 175.3575 -112.11 175.0275 -110.75 174.6875 C-112.07 174.0275 -113.39 173.3675 -114.75 172.6875 Z M-83.75 171.6875 C-85.39570159 172.74380262 -85.39570159 172.74380262 -86.75 174.6875 C-87.0003577 178.31285976 -87.0003577 178.31285976 -86.75 181.6875 C-84.32953969 180.76867798 -84.32953969 180.76867798 -83.5625 177.25 C-82.39477968 173.86885519 -82.39477968 173.86885519 -83.75 171.6875 Z M-11.75 173.6875 C-13.17944945 176.04188733 -13.83661261 177.16782433 -13.375 179.9375 C-13.16875 180.515 -12.9625 181.0925 -12.75 181.6875 C-11.76 181.3575 -10.77 181.0275 -9.75 180.6875 C-10.08 178.3775 -10.41 176.0675 -10.75 173.6875 C-11.08 173.6875 -11.41 173.6875 -11.75 173.6875 Z M35.25 173.6875 C32.96271266 175.52633881 32.96271266 175.52633881 33.125 178.3125 C33.16625 179.09625 33.2075 179.88 33.25 180.6875 C34.24 181.0175 35.23 181.3475 36.25 181.6875 C36.92801034 178.78676819 36.92801034 178.78676819 37.25 175.6875 C36.59 175.0275 35.93 174.3675 35.25 173.6875 Z M-105.75 176.6875 C-105.34471099 179.46987655 -105.34471099 179.46987655 -103.75 181.6875 C-102.08382885 181.72813832 -100.41611905 181.730221 -98.75 181.6875 C-98.42 179.3775 -98.09 177.0675 -97.75 174.6875 C-102.24304582 174.26246554 -102.24304582 174.26246554 -105.75 176.6875 Z M-95.75 174.6875 C-96.08 176.9975 -96.41 179.3075 -96.75 181.6875 C-96.09 181.6875 -95.43 181.6875 -94.75 181.6875 C-94.09 179.7075 -93.43 177.7275 -92.75 175.6875 C-93.74 175.3575 -94.73 175.0275 -95.75 174.6875 Z M-90.75 174.6875 C-91.08 176.9975 -91.41 179.3075 -91.75 181.6875 C-91.09 181.6875 -90.43 181.6875 -89.75 181.6875 C-89.42 179.3775 -89.09 177.0675 -88.75 174.6875 C-89.41 174.6875 -90.07 174.6875 -90.75 174.6875 Z M-81.75 174.6875 C-81.42 177.3275 -81.09 179.9675 -80.75 182.6875 C-81.41 182.6875 -82.07 182.6875 -82.75 182.6875 C-82.75 183.3475 -82.75 184.0075 -82.75 184.6875 C-80.86341126 184.72275132 -80.86341126 184.72275132 -78.75 183.6875 C-76.74159505 180.98700956 -74.75 178.13623267 -74.75 174.6875 C-75.41 174.6875 -76.07 174.6875 -76.75 174.6875 C-77.41 175.3475 -78.07 176.0075 -78.75 176.6875 C-79.08 176.0275 -79.41 175.3675 -79.75 174.6875 C-80.41 174.6875 -81.07 174.6875 -81.75 174.6875 Z M-59.75 174.6875 C-60.74 175.3475 -61.73 176.0075 -62.75 176.6875 C-62.48323796 178.67241642 -62.48323796 178.67241642 -61.75 180.6875 C-60.76 181.0175 -59.77 181.3475 -58.75 181.6875 C-58.09 181.0275 -57.43 180.3675 -56.75 179.6875 C-58.07 179.6875 -59.39 179.6875 -60.75 179.6875 C-60.75 178.6975 -60.75 177.7075 -60.75 176.6875 C-59.43 176.3575 -58.11 176.0275 -56.75 175.6875 C-57.74 175.3575 -58.73 175.0275 -59.75 174.6875 Z M-54.4375 176.1875 C-54.870625 176.6825 -55.30375 177.1775 -55.75 177.6875 C-55.42 178.6775 -55.09 179.6675 -54.75 180.6875 C-52.84291157 181.60178339 -52.84291157 181.60178339 -50.75 181.6875 C-50.09 181.0275 -49.43 180.3675 -48.75 179.6875 C-49.07041397 177.08469432 -49.07041397 177.08469432 -49.75 174.6875 C-52.75259517 174.35531808 -52.75259517 174.35531808 -54.4375 176.1875 Z M-46.75 174.6875 C-47.08 176.9975 -47.41 179.3075 -47.75 181.6875 C-46.76 181.3575 -45.77 181.0275 -44.75 180.6875 C-44.42 179.6975 -44.09 178.7075 -43.75 177.6875 C-43.42 179.0075 -43.09 180.3275 -42.75 181.6875 C-42.09 181.6875 -41.43 181.6875 -40.75 181.6875 C-40.42 179.7075 -40.09 177.7275 -39.75 175.6875 C-42.24064888 175.00042445 -44.12886292 174.6875 -46.75 174.6875 Z M-37.75 174.6875 C-38.08 176.9975 -38.41 179.3075 -38.75 181.6875 C-37.76 181.3575 -36.77 181.0275 -35.75 180.6875 C-35.75 179.3675 -35.75 178.0475 -35.75 176.6875 C-35.09 176.6875 -34.43 176.6875 -33.75 176.6875 C-33.75 178.3375 -33.75 179.9875 -33.75 181.6875 C-33.09 181.6875 -32.43 181.6875 -31.75 181.6875 C-31.75 179.7075 -31.75 177.7275 -31.75 175.6875 C-33.82553648 175.1340236 -35.59365964 174.6875 -37.75 174.6875 Z M-29.75 176.6875 C-29.42 178.0075 -29.09 179.3275 -28.75 180.6875 C-26.77 181.1825 -26.77 181.1825 -24.75 181.6875 C-24.75 181.0275 -24.75 180.3675 -24.75 179.6875 C-24.09 179.3575 -23.43 179.0275 -22.75 178.6875 C-22.75 177.6975 -22.75 176.7075 -22.75 175.6875 C-26.23581856 174.4854936 -26.42992344 174.47411563 -29.75 176.6875 Z M-18.75 174.6875 C-19.74 175.3475 -20.73 176.0075 -21.75 176.6875 C-21.48323796 178.67241642 -21.48323796 178.67241642 -20.75 180.6875 C-19.76 181.0175 -18.77 181.3475 -17.75 181.6875 C-17.09 181.0275 -16.43 180.3675 -15.75 179.6875 C-16.74 179.0275 -17.73 178.3675 -18.75 177.6875 C-17.43 177.3575 -16.11 177.0275 -14.75 176.6875 C-16.07 176.0275 -17.39 175.3675 -18.75 174.6875 Z M11.25 174.6875 C10.92 176.9975 10.59 179.3075 10.25 181.6875 C10.91 181.6875 11.57 181.6875 12.25 181.6875 C12.37375 180.883125 12.4975 180.07875 12.625 179.25 C12.83125 178.404375 13.0375 177.55875 13.25 176.6875 C13.91 176.3575 14.57 176.0275 15.25 175.6875 C13.93 175.3575 12.61 175.0275 11.25 174.6875 Z M19.25 174.6875 C18.26 175.3475 17.27 176.0075 16.25 176.6875 C16.58 178.0075 16.91 179.3275 17.25 180.6875 C18.57 180.6875 19.89 180.6875 21.25 180.6875 C21.91 179.3675 22.57 178.0475 23.25 176.6875 C21.93 176.0275 20.61 175.3675 19.25 174.6875 Z M24.25 176.6875 C24.57041397 179.29030568 24.57041397 179.29030568 25.25 181.6875 C26.9 181.6875 28.55 181.6875 30.25 181.6875 C30.58 179.3775 30.91 177.0675 31.25 174.6875 C27.29542152 174.33926193 27.29542152 174.33926193 24.25 176.6875 Z M6.25 174.6875 C5.26 175.3475 4.27 176.0075 3.25 176.6875 C3.58 178.0075 3.91 179.3275 4.25 180.6875 C5.57 180.6875 6.89 180.6875 8.25 180.6875 C7.26 180.3575 6.27 180.0275 5.25 179.6875 C5.25 178.6975 5.25 177.7075 5.25 176.6875 C6.24 177.0175 7.23 177.3475 8.25 177.6875 C8.58 177.0275 8.91 176.3675 9.25 175.6875 C8.26 175.3575 7.27 175.0275 6.25 174.6875 Z M41.25 174.6875 C40.26 175.3475 39.27 176.0075 38.25 176.6875 C38.25 178.0075 38.25 179.3275 38.25 180.6875 C39.57 181.0175 40.89 181.3475 42.25 181.6875 C43.24 180.0375 44.23 178.3875 45.25 176.6875 C43.93 176.0275 42.61 175.3675 41.25 174.6875 Z M-69.75 178.6875 C-70.08 179.3475 -70.41 180.0075 -70.75 180.6875 C-70.09 180.6875 -69.43 180.6875 -68.75 180.6875 C-69.08 180.0275 -69.41 179.3675 -69.75 178.6875 Z M-4.75 178.6875 C-4.75 179.3475 -4.75 180.0075 -4.75 180.6875 C-4.09 180.6875 -3.43 180.6875 -2.75 180.6875 C-2.75 180.0275 -2.75 179.3675 -2.75 178.6875 C-3.41 178.6875 -4.07 178.6875 -4.75 178.6875 Z M-117.87890625 189.515625 C-119.42775316 191.86024539 -120.64548895 194.1048329 -121.75 196.6875 C-122.12769531 197.54988281 -122.50539063 198.41226563 -122.89453125 199.30078125 C-123.91870489 201.73561227 -123.91870489 201.73561227 -123.75 204.6875 C-119.01525903 202.9878494 -114.78832889 200.55090973 -110.4375 198.0625 C-109.69693359 197.64226562 -108.95636719 197.22203125 -108.19335938 196.7890625 C-106.37730989 195.75801505 -104.56343467 194.72313954 -102.75 193.6875 C-102.75 191.7075 -102.75 189.7275 -102.75 187.6875 C-110.8150909 186.46684151 -110.8150909 186.46684151 -117.87890625 189.515625 Z M-85.75 190.6875 C-85.75 193.6575 -85.75 196.6275 -85.75 199.6875 C-78.93300472 202.28621271 -78.93300472 202.28621271 -71.75 202.6875 C-71.75 200.0475 -71.75 197.4075 -71.75 194.6875 C-73.7070868 194.01718281 -75.66571113 193.35135317 -77.625 192.6875 C-78.71554688 192.31625 -79.80609375 191.945 -80.9296875 191.5625 C-83.57620854 190.588728 -83.57620854 190.588728 -85.75 190.6875 Z M-106.04296875 201.671875 C-106.83767578 202.11273438 -107.63238281 202.55359375 -108.45117188 203.0078125 C-109.27166016 203.47960937 -110.09214844 203.95140625 -110.9375 204.4375 C-111.76958984 204.89382813 -112.60167969 205.35015625 -113.45898438 205.8203125 C-118.2565323 208.22214871 -118.2565323 208.22214871 -120.75 212.6875 C-119.43 214.0075 -118.11 215.3275 -116.75 216.6875 C-113.06824616 214.3772494 -109.40383798 212.04165064 -105.75 209.6875 C-105.00621094 209.213125 -104.26242188 208.73875 -103.49609375 208.25 C-99.99469834 206.04323511 -99.99469834 206.04323511 -98.0703125 202.54296875 C-97.96460938 201.93066406 -97.85890625 201.31835938 -97.75 200.6875 C-101.26542652 199.42069749 -102.82066105 199.87586978 -106.04296875 201.671875 Z M-81.75 207.6875 C-89.55878255 217.98479567 -94.45054189 230.26601065 -97.75 242.6875 C-92.8 242.1925 -92.8 242.1925 -87.75 241.6875 C-86.19882236 237.63180488 -84.65065133 233.57497876 -83.10522461 229.51708984 C-82.57935214 228.13754512 -82.05266743 226.75830974 -81.52514648 225.37939453 C-80.7659133 223.39436827 -80.00963298 221.40823844 -79.25390625 219.421875 C-78.79830322 218.22788086 -78.3427002 217.03388672 -77.87329102 215.80371094 C-77.01620095 213.42598923 -76.28595847 211.15130909 -75.75 208.6875 C-78.72 208.1925 -78.72 208.1925 -81.75 207.6875 Z M-153.4375 227.1875 C-154.32373047 227.59742188 -155.20996094 228.00734375 -156.12304688 228.4296875 C-163.53309162 232.04969455 -169.42563832 236.76097639 -172.5 244.625 C-175.13314571 253.99638192 -177.01852283 263.94395733 -176.75 273.6875 C-166.64338363 272.50384223 -156.47647959 266.27398611 -149.75 258.6875 C-142.65840141 249.39394386 -139.65395237 238.32246718 -140.75 226.6875 C-141.05300143 225.34694824 -141.37719933 224.01034109 -141.75 222.6875 C-145.87510373 222.6875 -149.79221064 225.41285379 -153.4375 227.1875 Z M-136.75 245.6875 C-138.32060309 249.000851 -138.32060309 249.000851 -138.6875 252.59375 C-137.22066412 255.86968347 -134.6762506 257.04986804 -131.6875 258.9375 C-130.58277344 259.64390625 -129.47804688 260.3503125 -128.33984375 261.078125 C-127.05787109 261.87476563 -127.05787109 261.87476563 -125.75 262.6875 C-124.43 261.3675 -123.11 260.0475 -121.75 258.6875 C-123.2751419 254.50534988 -126.32528546 252.44176869 -129.8125 249.9375 C-130.36744141 249.52628906 -130.92238281 249.11507812 -131.49414062 248.69140625 C-133.88818914 246.59422394 -133.88818914 246.59422394 -136.75 245.6875 Z M-115.0859375 259.125 C-119.45507525 264.42474832 -122.75 268.62430795 -122.75 275.6875 C-105.92 275.6875 -89.09 275.6875 -71.75 275.6875 C-70.74374476 261.92078635 -70.74374476 261.92078635 -76.75 251.6875 C-80.89509391 247.90814967 -84.80316391 247.38880524 -90.2265625 247.4765625 C-99.55314758 248.25618416 -108.60713955 252.36451518 -115.0859375 259.125 Z " fill="#633BF1" transform="translate(312.75,109.3125)"/>
<path d="M0 0 C1.19786133 -0.03577148 1.19786133 -0.03577148 2.41992188 -0.07226562 C6.74603454 -0.06151307 8.56888817 0.1904023 12.125 2.87109375 C14.0625 5.5625 14.0625 5.5625 14.125 9.1875 C12.91713748 13.02423978 12.54465942 13.72605599 9.0625 15.5625 C6.05515327 16.0236039 3.10012826 16.02668843 0.0625 16 C-0.74445313 16.01998047 -1.55140625 16.03996094 -2.3828125 16.06054688 C-6.21784501 16.05738266 -8.28639393 16.02771931 -11.46875 13.75390625 C-13.62732129 10.53327196 -13.47826003 8.34782019 -12.9375 4.5625 C-9.56626024 -0.43623481 -5.51874165 -0.07535631 0 0 Z " fill="#633BF1" transform="translate(220.9375,192.4375)"/>
<path d="M0 0 C-0.48836297 4.57876124 -0.48836297 4.57876124 -2.74658203 6.43798828 C-3.49278809 6.81165527 -4.23899414 7.18532227 -5.0078125 7.5703125 C-5.83023438 7.99183594 -6.65265625 8.41335938 -7.5 8.84765625 C-8.36625 9.26917969 -9.2325 9.69070313 -10.125 10.125 C-10.96804688 10.55425781 -11.81109375 10.98351562 -12.6796875 11.42578125 C-27.18083823 18.74390856 -27.18083823 18.74390856 -34 18 C-37.4375 16.5 -37.4375 16.5 -40 15 C-39.67 13.35 -39.34 11.7 -39 10 C-38.43152344 10.10699219 -37.86304688 10.21398437 -37.27734375 10.32421875 C-36.50519531 10.44410156 -35.73304688 10.56398438 -34.9375 10.6875 C-33.80634766 10.87892578 -33.80634766 10.87892578 -32.65234375 11.07421875 C-29.00563246 10.97217528 -26.21496906 9.57812858 -23 8 C-22.24920166 7.63414795 -21.49840332 7.2682959 -20.72485352 6.89135742 C-15.73499792 4.44677083 -15.73499792 4.44677083 -10.76367188 1.96484375 C-9.95091797 1.56910156 -9.13816406 1.17335938 -8.30078125 0.765625 C-7.57028564 0.40243164 -6.83979004 0.03923828 -6.0871582 -0.33496094 C-3.64465046 -1.11322636 -2.38525558 -0.84094471 0 0 Z " fill="#6A44F1" transform="translate(298,342)"/>
<path d="M0 0 C2.3136313 2.09477429 2.9825031 2.93876083 3.875 6.0625 C4.69549772 9.15984659 4.69549772 9.15984659 7.3125 10.25 C8.199375 10.4975 9.08625 10.745 10 11 C11.66666667 11.66666667 13.33333333 12.33333333 15 13 C13.12512993 15.18734841 11.85982322 16.05485179 9.125 17.125 C4.70602776 19.77638334 3.16128654 23.43834655 1 28 C-1.03883669 25.96116331 -1.57014136 24.73750036 -2.625 22.125 C-4.90593403 17.3367797 -8.16438346 15.78401387 -13 14 C-10.87519912 12.3473771 -8.9406826 10.97182424 -6.5 9.8125 C-2.95440875 7.24194635 -1.68383053 3.96029416 0 0 Z " fill="#6841F1" transform="translate(375,173)"/>
<path d="M0 0 C3 3 6 6 9 9 C8.236875 9.391875 7.47375 9.78375 6.6875 10.1875 C3.75283929 12.16668978 2.59873102 13.8866817 1 17 C0.443125 16.2575 -0.11375 15.515 -0.6875 14.75 C-2.93027178 12.08292005 -5.22074975 10.08443768 -8 8 C-7.05125 7.4225 -6.1025 6.845 -5.125 6.25 C-2.23865902 4.17183449 -1.15904259 3.24531925 0 0 Z " fill="#6D46F1" transform="translate(404,193)"/>
<path d="M0 0 C2.625 0.9375 2.625 0.9375 5 2 C5.49230769 8.4 5.49230769 8.4 3 11.4375 C2.01 12.2109375 2.01 12.2109375 1 13 C-1.4375 12.3125 -1.4375 12.3125 -4 11 C-5 8.6875 -5 8.6875 -5 6 C-2.80597015 1.40298507 -2.80597015 1.40298507 0 0 Z " fill="#6943F2" transform="translate(281,240)"/>
<path d="M0 0 C4.875 1.875 4.875 1.875 6 3 C5.4 9.6 5.4 9.6 3 12 C0.5 12.25 0.5 12.25 -2 12 C-4 10 -4 10 -4.375 7.125 C-3.92491816 3.37431801 -2.87398748 2.33511483 0 0 Z " fill="#6A43F1" transform="translate(219,240)"/>
<path d="M0 0 C1.65 0 3.3 0 5 0 C6.36952673 2.73905345 6.12621361 4.97087332 6 8 C5.67 8.66 5.34 9.32 5 10 C3.35 9.67 1.7 9.34 0 9 C-1.125 3.375 -1.125 3.375 0 0 Z " fill="#724EF2" transform="translate(265,195)"/>
<path d="M0 0 C2.625 0.375 2.625 0.375 5 1 C5.33 1.99 5.66 2.98 6 4 C5.01 5.485 5.01 5.485 4 7 C2.35 6.67 0.7 6.34 -1 6 C-1.625 4.125 -1.625 4.125 -2 2 C-1.34 1.34 -0.68 0.68 0 0 Z " fill="#6E4AF2" transform="translate(210,371)"/>
<path d="M0 0 C2.97 0.495 2.97 0.495 6 1 C5.67 2.65 5.34 4.3 5 6 C3.125 6.625 3.125 6.625 1 7 C0.34 6.34 -0.32 5.68 -1 5 C-0.625 2.375 -0.625 2.375 0 0 Z " fill="#6E48F1" transform="translate(224,371)"/>
<path d="M0 0 C2.29013653 3.4352048 2.17842973 4.985331 2 9 C-0.31 9 -2.62 9 -5 9 C-4.3566152 7.686298 -3.71021785 6.37407102 -3.0625 5.0625 C-2.70285156 4.33160156 -2.34320313 3.60070312 -1.97265625 2.84765625 C-1 1 -1 1 0 0 Z " fill="#6E47F1" transform="translate(321,237)"/>
<path d="M0 0 C0.598125 0.226875 1.19625 0.45375 1.8125 0.6875 C1.855221 2.35361905 1.85313832 4.02132885 1.8125 5.6875 C0.8125 6.6875 0.8125 6.6875 -1.75 6.75 C-2.9565625 6.7190625 -2.9565625 6.7190625 -4.1875 6.6875 C-4.875 4.875 -4.875 4.875 -5.1875 2.6875 C-3.58493056 0.24147296 -2.95482043 -0.4221172 0 0 Z " fill="#6E49F0" transform="translate(232.1875,160.3125)"/>
<path d="M0 0 C-0.33 2.64 -0.66 5.28 -1 8 C-1.99 7.34 -2.98 6.68 -4 6 C-4.99 6 -5.98 6 -7 6 C-6.67 4.35 -6.34 2.7 -6 1 C-3.92446352 0.4465236 -2.15634036 0 0 0 Z " fill="#764DF2" transform="translate(204,283)"/>
<path d="M0 0 C0.33 0.66 0.66 1.32 1 2 C1.66 2 2.32 2 3 2 C1.8141763 5.37503669 0.72426311 7.64722731 -2 10 C-2.99 9.34 -3.98 8.68 -5 8 C-4.360625 7.236875 -3.72125 6.47375 -3.0625 5.6875 C-0.85767219 3.11753287 -0.85767219 3.11753287 0 0 Z " fill="#845EEF" transform="translate(297,249)"/>
<path d="M0 0 C1.04449911 3.13349732 0.93423645 3.98968256 0 7 C-3 6 -3 6 -5 5 C-5 4.01 -5 3.02 -5 2 C-4.360625 1.855625 -3.72125 1.71125 -3.0625 1.5625 C-1.02454854 1.18992819 -1.02454854 1.18992819 0 0 Z " fill="#8D6DEE" transform="translate(323,284)"/>
<path d="M0 0 C0.33 1.98 0.66 3.96 1 6 C-1.97 5.505 -1.97 5.505 -5 5 C-5 4.01 -5 3.02 -5 2 C-2 0 -2 0 0 0 Z " fill="#997BF3" transform="translate(257,284)"/>
<path d="M0 0 C0.66 0 1.32 0 2 0 C1.67 2.64 1.34 5.28 1 8 C0.34 7.67 -0.32 7.34 -1 7 C-1.04254356 5.00045254 -1.04080783 2.99958364 -1 1 C-0.67 0.67 -0.34 0.34 0 0 Z " fill="#8160F0" transform="translate(202,283)"/>
<path d="M0 0 C0.66 0 1.32 0 2 0 C1.67 3.96 1.34 7.92 1 12 C0.67 12 0.34 12 0 12 C-0.19401633 10.18818595 -0.38004375 8.37551468 -0.5625 6.5625 C-0.66691406 5.55316406 -0.77132813 4.54382813 -0.87890625 3.50390625 C-0.91886719 2.67761719 -0.95882813 1.85132813 -1 1 C-0.67 0.67 -0.34 0.34 0 0 Z " fill="#8A68F1" transform="translate(264,240)"/>
<path d="M0 0 C0.66 0 1.32 0 2 0 C2 0.99 2 1.98 2 3 C1.01 2.67 0.02 2.34 -1 2 C-0.67 1.34 -0.34 0.68 0 0 Z " fill="#8D6DF4" transform="translate(210,286)"/>
<path d="M0 0 C0.66 0 1.32 0 2 0 C2 0.99 2 1.98 2 3 C1.34 3 0.68 3 0 3 C0 2.01 0 1.02 0 0 Z " fill="#8564ED" transform="translate(339,286)"/>
<path d="M0 0 C0.66 0 1.32 0 2 0 C2 0.99 2 1.98 2 3 C1.34 3 0.68 3 0 3 C0 2.01 0 1.02 0 0 Z " fill="#8666EE" transform="translate(260,286)"/>
<path d="M0 0 C2 1 2 1 2 1 Z " fill="#A575F6" transform="translate(286,286)"/>
<path d="" fill="#8969ED" transform="translate(0,0)"/>
<path d="" fill="#8A69ED" transform="translate(0,0)"/>
</svg>
